<svg width="30" height="29" viewBox="0 0 30 29" fill="none" xmlns="http://www.w3.org/2000/svg">
<circle cx="12.9615" cy="22.9487" r="3.59615" fill="#FF7D00"/>
<path d="M10.7078 25.3414L3.95914 18.6046C3.58576 18.2237 3.37646 17.7115 3.37646 17.1781C3.37646 16.6447 3.58576 16.1326 3.95914 15.7516L15.359 4.35182C15.7399 3.97843 16.252 3.76929 16.7854 3.76929C17.3188 3.76929 17.8308 3.97843 18.2118 4.35182L26.7588 12.9107C26.9462 13.0968 27.0948 13.3181 27.1963 13.5618C27.2978 13.8056 27.3499 14.0671 27.3499 14.3312C27.3499 14.5952 27.2978 14.8567 27.1963 15.1005C27.0948 15.3443 26.9462 15.5656 26.7588 15.7516L17.169 25.3414" stroke="#212A2E" stroke-width="2" stroke-miterlimit="10"/>
<path d="M6.81213 21.4576L21.0529 7.2168" stroke="#212A2E" stroke-width="2" stroke-miterlimit="10"/>
<path d="M2.1731 25.3535H28.5449" stroke="#212A2E" stroke-width="2" stroke-miterlimit="10"/>
</svg>
