<svg width="24" height="24" viewBox="0 0 24 24" fill="none" xmlns="http://www.w3.org/2000/svg">
<path d="M12 7C13.1046 7 14 6.10457 14 5C14 3.89543 13.1046 3 12 3C10.8954 3 10 3.89543 10 5C10 6.10457 10.8954 7 12 7Z" stroke="#44475C" stroke-width="2" stroke-miterlimit="10"/>
<path d="M4 21C5.10457 21 6 20.1046 6 19C6 17.8954 5.10457 17 4 17C2.89543 17 2 17.8954 2 19C2 20.1046 2.89543 21 4 21Z" stroke="#44475C" stroke-width="2" stroke-miterlimit="10"/>
<path d="M12 21C13.1046 21 14 20.1046 14 19C14 17.8954 13.1046 17 12 17C10.8954 17 10 17.8954 10 19C10 20.1046 10.8954 21 12 21Z" stroke="#44475C" stroke-width="2" stroke-miterlimit="10"/>
<path d="M20 21C21.1046 21 22 20.1046 22 19C22 17.8954 21.1046 17 20 17C18.8954 17 18 17.8954 18 19C18 20.1046 18.8954 21 20 21Z" stroke="#44475C" stroke-width="2" stroke-miterlimit="10"/>
<path d="M12 7V17" stroke="#44475C" stroke-width="2" stroke-miterlimit="10"/>
<path d="M4 17V14C4 13.4696 4.21062 12.9609 4.58569 12.5858C4.96077 12.2107 5.46957 12 6 12H12" stroke="#44475C" stroke-width="2" stroke-miterlimit="10"/>
<path d="M20 17V14C20 13.4696 19.7891 12.9609 19.4141 12.5858C19.039 12.2107 18.5304 12 18 12H12" stroke="#44475C" stroke-width="2" stroke-miterlimit="10"/>
</svg>
