<svg width="30" height="29" viewBox="0 0 30 29" fill="none" xmlns="http://www.w3.org/2000/svg">
<circle cx="18.9552" cy="3.64742" r="3.59615" fill="#FF7D00"/>
<path d="M20.1538 7.2436C20.1538 5.97192 19.6486 4.75233 18.7494 3.85311C17.8502 2.9539 16.6306 2.44873 15.359 2.44873C14.0873 2.44873 12.8678 2.9539 11.9685 3.85311C11.0693 4.75233 10.5641 5.97192 10.5641 7.2436V9.64104C10.5641 10.9127 11.0693 12.1323 11.9685 13.0315C12.8678 13.9307 14.0873 14.4359 15.359 14.4359C16.6306 14.4359 17.8502 13.9307 18.7494 13.0315C19.6486 12.1323 20.1538 10.9127 20.1538 9.64104V7.2436Z" stroke="#212A2E" stroke-width="2" stroke-miterlimit="10"/>
<path d="M4.57056 26.423C6.39261 21.4843 10.5641 18.032 15.359 18.032" stroke="#212A2E" stroke-width="2" stroke-miterlimit="10"/>
<path d="M27.3462 21.6282H17.7565" stroke="#212A2E" stroke-width="2" stroke-miterlimit="10"/>
<path d="M22.5513 26.423V16.8333" stroke="#212A2E" stroke-width="2" stroke-miterlimit="10"/>
</svg>
