<svg width="30" height="29" viewBox="0 0 30 29" fill="none" xmlns="http://www.w3.org/2000/svg">
<circle cx="15.359" cy="14.5962" r="3.59615" fill="#FF7D00"/>
<path d="M15.359 26.5832C21.9793 26.5832 27.3462 21.2164 27.3462 14.5961C27.3462 7.97573 21.9793 2.60889 15.359 2.60889C8.73867 2.60889 3.37183 7.97573 3.37183 14.5961C3.37183 21.2164 8.73867 26.5832 15.359 26.5832Z" stroke="#212A2E" stroke-width="2" stroke-miterlimit="10"/>
<path d="M15.359 19.391C18.0071 19.391 20.1538 17.2443 20.1538 14.5961C20.1538 11.948 18.0071 9.80127 15.359 9.80127C12.7108 9.80127 10.5641 11.948 10.5641 14.5961C10.5641 17.2443 12.7108 19.391 15.359 19.391Z" stroke="#212A2E" stroke-width="2" stroke-miterlimit="10"/>
<path d="M18.7513 11.2036L23.8099 6.14502" stroke="#212A2E" stroke-width="2" stroke-miterlimit="10"/>
<path d="M6.91992 23.0352L11.9666 17.9766" stroke="#212A2E" stroke-width="2" stroke-miterlimit="10"/>
<path d="M18.7513 17.9766L23.8099 23.0352" stroke="#212A2E" stroke-width="2" stroke-miterlimit="10"/>
<path d="M6.91992 6.14502L11.9666 11.2036" stroke="#212A2E" stroke-width="2" stroke-miterlimit="10"/>
</svg>
