<svg id="Layer_1" data-name="Layer 1" xmlns="http://www.w3.org/2000/svg" viewBox="0 0 2000 2000"><defs><style>.cls-1{fill:#ffc700;}.cls-1,.cls-2{stroke:#231f20;stroke-linecap:round;stroke-linejoin:round;stroke-width:2px;}.cls-2{fill:#fff0bd;}</style></defs><path class="cls-1" d="M1860.54,185.15l-.94-.55-.94-.55c-.32-.18-.63-.37-1-.54l-.94-.55c-.31-.18-.62-.37-.94-.54l-.94-.55-1-.55-.94-.54-.94-.55c-.31-.18-.62-.37-.94-.54l-.95-.55-.93-.54-.94-.55-1-.55-.94-.55-1-.54-.93-.54-.94-.55-.95-.55-.94-.55-.94-.54-.94-.55-.94-.54-1-.55c-.31-.18-.62-.37-.94-.54l-.94-.55-.94-.55c-.32-.18-.63-.37-.95-.54l-.93-.55c-.32-.18-.63-.37-1-.54l-.94-.55-.94-.55-.94-.54-.94-.55-.94-.54-.95-.55c-.32-.18-.62-.37-.94-.54l-.94-.55-.94-.55-1-.55-.94-.54-.94-.55-.94-.54-1-.55c-.31-.18-.62-.37-.93-.54l-.94-.55-1-.55-.94-.54-.95-.55-.93-.54-1-.55-.94-.55-.94-.54-.94-.55c-.32-.18-.62-.37-.94-.54l-.94-.55-1-.55c-.31-.18-.62-.37-.94-.54l-.94-.55c-.31-.18-.62-.37-.94-.54s-.63-.38-1-.55l-.93-.55-1-.54-.94-.55-.94-.55-.94-.54-.94-.55-.94-.54-1-.55c-.32-.18-.62-.37-.94-.54l-.94-.55-.94-.55c-.32-.18-.63-.37-1-.54l-.94-.55c-.31-.18-.62-.37-.94-.54l-.94-.55-1-.55c-.31-.18-.62-.37-.93-.54l-.94-.55c-.32-.18-.63-.37-1-.54l-.94-.55-1-.55c-.31-.18-.62-.37-.93-.54l-.94-.55c-.32-.18-.63-.37-1-.54s-.62-.38-.94-.55l-.94-.55-.94-.54-.94-.55-1-.55-.94-.54-.94-.55c-.31-.18-.62-.37-.94-.54l-1-.55c-.31-.18-.62-.37-.93-.54l-1-.55-.94-.55-.94-.54-.94-.55-.94-.54c-29.86-17.09-65.88-16.46-104.65,5.8L787.9,638.15v39.09a40.24,40.24,0,0,0-7.91-4.63c-.33-.15-.61-.41-.94-.55s-.61-.41-.95-.55-.6-.4-.94-.54-.6-.41-.94-.55-.6-.4-.94-.54-.6-.41-.94-.55-.61-.41-.94-.55-.61-.4-.95-.54-.6-.41-.94-.55-.6-.4-.94-.54-.6-.41-.94-.55-.61-.41-1-.55-.6-.4-.93-.54-.61-.41-1-.55-.6-.4-.94-.54-.6-.41-.94-.55-.61-.41-.94-.55-.61-.4-.94-.54-.61-.41-.95-.55-.6-.4-.94-.54-.6-.41-.94-.55-.6-.41-.94-.55-.61-.4-.94-.54-.61-.41-1-.55-.6-.41-.94-.54-.6-.41-.94-.55-.6-.41-.94-.55-.61-.4-.94-.54-.61-.41-.94-.55-.61-.4-.95-.54-.6-.41-.94-.55-.61-.41-.94-.55-.61-.4-.94-.54-.61-.41-.94-.55-.61-.4-1-.54-.6-.41-.94-.55-.6-.41-.94-.55-.6-.4-.94-.54-.6-.41-.94-.55-.61-.41-.94-.54-.61-.41-1-.55-.6-.41-.94-.55-.6-.4-.94-.54-.6-.41-.94-.55-.61-.4-.95-.55-.6-.4-.93-.54-.61-.41-.95-.55-.6-.4-.94-.54-.6-.41-.94-.55-.61-.41-.94-.54-.61-.41-.94-.55-.61-.41-1-.55-.6-.4-.94-.54-.6-.41-.94-.55-.6-.4-.94-.54-.61-.41-.94-.55-.61-.41-1-.55-.6-.4-.94-.54-.6-.41-.94-.55-.6-.41-.94-.55-.61-.4-.94-.54-.61-.41-.94-.55-.61-.4-1-.54-.6-.41-.94-.55-.6-.4-.94-.55-.6-.4-.94-.54-.6-.41-.94-.55-.61-.4-.94-.54-.61-.41-1-.55-.6-.41-.94-.54-.6-.41-.94-.55-.6-.41-.94-.55-.61-.4-.94-.54-.61-.41-1-.55-.6-.41-.94-.54-.6-.41-.94-.55-.6-.41-.94-.55-.61-.4-1-.54-.6-.41-.93-.55-.61-.41-1-.55-.6-.4-.94-.54-.6-.41-.94-.55-.61-.4-.94-.54-.61-.41-.94-.55-.61-.41-1-.55-.6-.4-.94-.54-.6-.41-.94-.55-.6-.4-.94-.54-.61-.41-.94-.55-.61-.4-.95-.55-.6-.4-.94-.54-.6-.41-.94-.55-.6-.4-.94-.54-.61-.41-.94-.55-.61-.41-.94-.54-.61-.41-.95-.55-.6-.41-.94-.55-.6-.4-.94-.54-.6-.41-.94-.55-.6-.41-.94-.55A43.77,43.77,0,0,0,674,614.53q-23.29-3.25-59.09,17.3-30.48,17.5-51.23,40.13a213.94,213.94,0,0,0-33.48,47.69c-1.67,3.29-2.82,6.58-4.31,9.87v-.72l-.94.54v-1.08l-.94.54v-1.09l-.94.54v-1.08l-.95.54v-1.09l-.94.54v-1.09l-.94.54v-1.08l-.94.54V725l-.94.54v-1.08l-1,.54v-1.09l-.94.54v-1.09l-.94.54V722.8l-.94.54v-1.09l-.94.54V721.7l-.94.55v-1.09l-1,.54v-1.09l-.94.54v-1.08l-.94.54v-1.09l-.94.54V719l-.94.55v-1.09L507,719v-1.09l-.94.54v-1.08l-.94.54v-1.09l-.94.54v-1.08l-.94.54V715.7l-.94.54v-1.09l-.95.54v-1.08l-.94.54v-1.09l-.94.54v-1.08l-.94.54V713l-.94.54v-1.09l-.95.54v-1.08l-.94.54v-1.09l-.94.54v-1.09l-.94.55v-1.09l-.94.54v-1.09l-.94.54v-1.08l-1,.54V708.6L428.1,744.74v71.74l-.75.42v-1.08l-.94.54v-1.09l-.94.54v-1.09l-.94.54v-1.08l-.94.54v-1.09l-.95.54v-1.08l-.94.54v-1.09l-.94.54V812l-.94.54v-1.08l-.94.54V810.9l-.94.54v-1.08l-.95.54v-1.09l-.94.54v-1.09l-.94.54v-1.08l-.94.54v-1.09l-.94.54v-1.08l-1,.54v-1.09l-.94.54v-1.09l-.94.54V806l-.94.54v-1.09l-.94.54V804.9l-.94.54v-1.09l-.95.54V803.8l-.94.54v-1.08l-.94.54v-1.09l-.94.54v-1.08l-.94.54v-1.09l-.94.54v-1.09l-.95.54v-1.08l-.94.54V800l-.94.54v-1.08l-.94.54v-1.09l-.94.54v-1.09l-1,.54V797.8l-.94.54v-1.09l-.94.54v-1.08l-.94.54v-1.09l-.94.54v-1.09l-.95.54v-1.08l-.94.54v-1.09l-.94.54V794l-.94.54v-1.09l-.94.54v-1.09l-.94.54v-1.08l-.95.54v-1.09l-.94.54v-1.08l-.94.54V790.7l-.94.54v-1.09l-.94.54v-1.08l-.95.54v-1.09l-.94.54v-1.09l-.94.55V788l-.94.54v-1.09l-.94.54v-1.08l-.94.54v-1.09l-.95.54v-1.08l-.94.54v-1.09l-.94.54v-1.09l-.94.54v-1.08l-.94.54V783.6l-.94.54v-1.08l-1,.54v-1.09l-.94.54V782l-.94.54v-1.08l-.94.54v-1.09l-.94.54v-1.09L144.84,907.41V924.8l-.92.53v-1.09l-.94.54v-1.09l-.94.54v-1.08l-.94.54V922.6l-.95.54v-1.09l-.94.55v-1.09l-.94.54V921l-.94.54v-1.08l-.94.54v-1.09l-.95.54v-1.08l-.94.54v-1.09l-.94.54v-1.09l-.94.54v-1.08l-.94.54v-1.09l-.94.54V916.6l-1,.54v-1.09L66.86,952.19v377.5l.94-.54v1.08l.94-.54v1.09l.94-.54v1.08l.94-.54v1.09l.94-.54v1.09l1-.54V1333l.94-.54v1.09l.94-.54v1.09l.94-.55v1.09l.94-.54v1.09l.94-.54v1.08l1-.54v1.09l.94-.54v1.09l.94-.55v1.09l.94-.54v1.09l.94-.54v1.08l1-.54V1339l.94-.54v1.09l.94-.55v1.09l.94-.54v1.09l.94-.54v1.08l.94-.54v1.09l1-.54v1.08l.94-.54v1.09l.94-.54v1.09l.94-.54v1.08l.94-.54v1.09l1-.54V1345l.94-.55v1.09l.94-.54v1.09l.94-.54v1.08l.94-.54v1.09l1-.54v1.09l.94-.55v1.09l.94-.54v1.09l.94-.54v1.08l.94-.54v1.09l.94-.54v1.09l1-.55V1351l.94-.54v1.09l.94-.54v1.08l.94-.54v1.09l.94-.54v1.09l.94-.54v1.08l.95-.54v1.09l.94-.54v.36l-53.37,30.65v441.52l.94-.54v1.08l.94-.54v1.09l.94-.54v1.09l.94-.55v1.09l1-.54V1829l.94-.54v1.08l.94-.54v1.09l.94-.54v1.09l.94-.54v1.08l.94-.54v1.09l1-.54v1.08l.94-.54v1.09l.94-.54v1.09l.94-.54v1.08l.94-.54v1.09l.95-.54V1835l.94-.54v1.09l.94-.54v1.09l.94-.54v1.08l.94-.54v1.09l.94-.54v1.08l1-.54v1.09l.94-.54v1.09l.94-.54v1.08l.94-.54v1.09l.94-.54v1.08l.94-.54V1841l1-.54v1.09l.94-.54v1.08l.94-.54v1.09l.94-.54v1.08l1-.54v1.09l.94-.54v1.09l.94-.54v1.08l.94-.54v1.09l.94-.54v1.08l.94-.54v1.09l.95-.54V1847l.94-.54v1.08l.94-.54v1.09l.94-.54v1.08l.94-.54v1.09l.94-.54v1.09l1-.54v1.08l.94-.54v1.09l.94-.54v1.08l.94-.54v1.09l.94-.54v1.09l.95-.54V1853l.94-.54v1.09l.94-.54v1.09l.94-.55v1.09l.94-.54v1.09l.94-.54v1.08l1-.54v1.09l.94-.54v1.08l.94-.54v1.09l.94-.54v1.09l.94-.54v1.08l.94-.54V1859l1-.54v1.08l.94-.54v1.09l.94-.54v1.09l.94-.54v1.08l.94-.54v1.09l1-.54v1.08l.94-.54v1.09l.94-.54v1.09l.94-.54v1.08l.94-.54v1.09l1-.54V1865l.94-.55v1.09l.94-.54v1.09l.94-.54v1.08l.94-.54v1.09l.94-.54v1.09l1-.55v1.09l.94-.54v1.09l.94-.54v1.08l.94-.54v1.09l.94-.54v1.08l.95-.54V1871l.94-.54v1.09l.94-.54v1.08l.94-.54v1.09l.94-.54v1.09l.94-.55v1.09l.95-.54v1.09l.94-.54v1.08l.94-.54v1.09l.94-.54v1.09l.94-.55v1.09l.94-.54V1877l1-.54v1.08l.94-.54v1.09l.94-.54v1.09l.94-.55v1.09l.94-.54v1.09l1-.54v1.08l.94-.54v1.09l.94-.54v1.09l1406.69-807.82V836.88l.17-.09v1.09l.94-.55v1.09l.94-.54V839l.95-.54v1.08l.94-.54v1.09l.94-.54v1.08l.94-.54v1.09l.94-.54v1.09l.95-.54v1.08l.94-.54v1.09l.94-.54v1.08l.94-.54v1.09l.94-.54v1.09l1-.54V845l.94-.54v1.09l.94-.54v1.09l.94-.55v1.09l.94-.54v1.09l.94-.54v1.08l1-.54v1.09l.94-.54v1.09l.94-.55v1.09l.94-.54v1.09l.94-.54v1.08l.94-.54V851l.95-.54v1.09l.94-.54v1.08l.94-.54v1.09l.94-.54v1.08l.94-.54v1.09l1-.54v1.09l.94-.55v1.09l.94-.54v1.09l.94-.54v1.08l.94-.54v1.09l.94-.54V857l1-.55v1.09l.94-.54v1.09l.94-.54v1.08l.94-.54v1.09l.94-.54v1.09l1-.55v1.09l.94-.54v1.09l.94-.54v1.08l.94-.54v1.09l.94-.54v1.09l.95-.54V863l.94-.54v1.09l.94-.54v1.08l.94-.54v1.09l.94-.54v1.09l.94-.55v1.09l1-.54v1.09l.94-.54v1.08l.94-.54v1.09l.94-.54v1.09l.94-.55v1.09l.94-.54V869l1-.54v1.08l.94-.54v1.09l.94-.54v1.09l.94-.55v1.09l.94-.54v1.09l1-.54v1.08l.94-.54v1.09l.94-.54v1.09l.94-.54v1.08l.94-.54v1.09l.94-.54V875l1-.54v1.09l.94-.54v1.09l.94-.54v1.08l.94-.54v1.09l.94-.54v1.08l1-.54v1.09l.94-.54v1.09l.94-.55v1.09l.94-.54v1.09l.94-.54v1.08l.94-.54V881l1-.54v1.09l.94-.55v1.09l.94-.54v1.09l.94-.54v1.08l.94-.54v1.09l.95-.54v1.09l.94-.54v1.08l.94-.54v1.09l116.11-66.68c102.75-59,186.35-247.69,186.35-420.6C1943.19,289.71,1910.35,212.9,1860.54,185.15ZM224.92,1238.92l.22-.13v1.09l.94-.54v1.08l.94-.54V1241l.94-.54v1.09l.94-.55v1.09l.95-.54v1.09l.94-.54v1.08l.94-.54v1.09l.94-.54v1.09l.94-.55v1.09l.94-.54v1.09l.95-.54v1.08l.94-.54v1.09l.94-.54V1247l.94-.54v1.08l.94-.54v1.09l.94-.54v1.08l1-.54v1.09l.94-.54v1.09l.94-.55v1.09l.94-.54v1.09l.94-.54v1.08l1-.54v1.09l.94-.54v1.09l.94-.55V1253l.94-.54v1.09l.94-.54v1.08l.94-.54v1.09l.95-.54v1.09l.94-.54v1.08l.94-.54v1.09l.94-.54v1.08l.94-.54v1.09l1-.54v1.09l.94-.54v1.08l.94-.54V1259l.94-.54v1.08l.94-.54v1.09l.94-.54v1.09l.95-.54v1.08l.94-.54v1.09l.94-.54v1.08l.94-.54v1.09l.94-.54v1.09l.95-.55v1.09l.94-.54v.36l-42.6,24.47Zm361.24-180.14c.16.09.36.12.53.22s.63.36.94.54l.94.55c.31.19.63.36.94.54s.63.37,1,.55l.94.55c.31.19.63.36.94.54l.94.55c.31.19.63.36.94.54s.63.37.95.55l.94.55.94.54.94.55c.31.19.63.36.94.54s.63.37,1,.55.62.37.94.55l.94.54.94.55c.31.19.63.37.95.55s.62.36.93.54.42.29.64.42l-19.06,11Zm-114.74,87.49v.36l-89.16,51.2V976.08l45.84-26.32v171.35l.94.59Zm1079.67-517.5v-1.09l-.94.54v-1.08l-.94.54v-1.09l-1,.54v-1.08l-.94.54V625.5l-.94.54V625l-.94.55v-1.09l-.94.54v-1.09l-.94.54v-1.08l-1,.54v-1.09l-.94.54v-1.09l-.94.54v-1.08l-.94.54v-1.09l-.94.54v-1.08l-.95.54V620l-.94.54v-1.09l-.94.54V619l-.94.54V618.4l-.94.54v-1.08l-.94.54v-1.09l-1,.54v-1.09l-.94.54v-1.08l-.94.54v-1.09l-.94.54v-1.08l-.94.54v-1.09l-1,.54V614l-.94.55v-1.09l-.94.54v-1.09l-.94.54V612.4l-.94.54v-1.09l-1,.54V611.3l-.94.54v-1.08l-.94.54v-1.09l-.94.54v-1.08l-.94.54v-1.09l-.94.54v-1.09l-1,.54V608l-.94.54v-1.09l-.94.54v-1.08l-.94.54v-1.09l-.94.54v-1.09l-.94.54V605.3l-1,.54v-1.09l-.94.54v-1.08l-.94.54v-1.09l-.94.54v-1.09l-.94.54v-1.08l-1,.54V602l-.94.54v-1.08l-.94.54v-1.09l-.94.54v-1.09l-.94.54v-1.08l-.94.54v-1.09l-.95.54v-1.08l-.94.54V598.2l-.94.54v-1.09l-.94.54v-1.08l-.94.54v-1.09l-1,.54V596l-.94.54v-1.09l-.94.54v-1.09l-.94.54v-1.08l-.94.54v-1.09l-1,.54v-1.08l-.94.54v-1.09l-.94.54v-1.09l-.94.54v-1.08l-.94.54V591.1l-.94.54v-1.08l-1,.54V590l-.94.54v-1.09l-.94.54v-1.08l-.94.54v-1.09l-.94.54v-1.08l-.94.54v-1.09l-1,.54v-1.09l-.94.54v-1.08l-.94.54v-1.09l-.94.54v-1.09l-.94.55v-1.09l-1,.54V584l-.94.54v-1.08l-.94.54v-1.09l-.94.54v-1.08l-.94.54v-1.09l-.94.54v-1.09l-1,.54v-1.08l-.94.54v-1.09l-.94.54v-1.08l-.94.54v-1.09l-.94.54v-1.09l-.95.54V578l-.94.54v-1.09l-.94.54V576.9L810.88,951.68c6.1-21,9.29-41.49,9.29-61.46q0-24.19-6-43.28T793,819.88c-.08,0-.19,0-.27-.1-.24-.13-.43-.32-.68-.45-.08,0-.18-.05-.26-.09-.24-.14-.43-.33-.68-.45a2.15,2.15,0,0,0-.27-.1c-.23-.13-.43-.32-.67-.45-.08,0-.19,0-.27-.1-.24-.13-.43-.32-.67-.45-.08,0-.19-.05-.27-.09-.24-.13-.43-.32-.67-.45-.08,0-.19-.06-.27-.1-.24-.13-.43-.32-.67-.45-.08,0-.19-.05-.27-.09-.24-.14-.43-.33-.68-.46-.08,0-.18,0-.26-.09-.24-.13-.44-.32-.68-.45-.08,0-.19,0-.27-.1-.24-.13-.43-.32-.67-.45-.08,0-.19-.05-.27-.09-.24-.13-.43-.33-.67-.45-.08,0-.19-.06-.27-.1-.24-.13-.43-.32-.67-.45-.08,0-.19,0-.27-.09-.24-.14-.43-.33-.67-.46s-.19-.05-.28-.09-.43-.32-.67-.45c-.08,0-.18,0-.27-.1s-.43-.32-.67-.45c-.08,0-.19-.05-.27-.09-.24-.13-.43-.33-.67-.45-.08-.05-.19-.06-.27-.1-.24-.13-.43-.32-.67-.45-.08,0-.19,0-.27-.1-.24-.13-.43-.32-.67-.44-.08-.05-.19-.06-.27-.1-.24-.13-.43-.32-.68-.45a2.77,2.77,0,0,1-.26-.1c-.24-.13-.43-.32-.68-.45-.08,0-.18,0-.27-.09s-.43-.33-.67-.45c-.08-.05-.19-.06-.27-.1-.24-.13-.43-.32-.67-.45-.08,0-.19,0-.27-.09-.24-.14-.43-.33-.67-.45-.08,0-.19-.06-.27-.1-.24-.13-.43-.32-.67-.45a2.15,2.15,0,0,1-.27-.1c-.24-.13-.43-.32-.68-.45-.08,0-.19,0-.27-.09-.24-.14-.43-.32-.67-.45a2.15,2.15,0,0,0-.27-.1c-.24-.13-.43-.32-.67-.45-.08,0-.19,0-.27-.09-.24-.14-.43-.33-.67-.46-.08,0-.19,0-.27-.09-.24-.13-.43-.32-.67-.45-.09-.05-.19-.06-.28-.1s-.42-.32-.67-.45c-.08,0-.18,0-.26-.09-.24-.13-.43-.33-.68-.45a2.15,2.15,0,0,0-.27-.1c-.23-.13-.43-.32-.67-.45-.08,0-.19-.05-.27-.09-.24-.14-.43-.33-.67-.46-.08,0-.19,0-.27-.09-.24-.13-.43-.32-.67-.45-.08,0-.19-.05-.27-.1-.24-.13-.43-.32-.68-.45-.08,0-.18,0-.26-.09-.24-.13-.43-.33-.68-.45a2.15,2.15,0,0,0-.27-.1c-.23-.13-.43-.32-.67-.45-.08,0-.19-.05-.27-.1-.24-.13-.43-.32-.67-.44l-.06,0,29.77-17.09v15.05l.94-.54v1.09l.94-.55v1.09l.94-.54v1.09l.95-.54v1.08l.94-.54v1.09l.94-.54v1.09l.94-.55v1.09l.94-.54V802l1-.54v1.08l.94-.54v1.09l.94-.54v1.09l.94-.54v1.08l.94-.54v1.09l1-.54v1.08l.94-.54v1.09l.94-.54v1.09l.94-.55v1.09l.94-.54v1.09l.94-.54V808l1-.54v1.09l.94-.54v1.09l.94-.55v1.09l.94-.54v1.09l.94-.54v1.08l1-.54v1.09l.94-.54v1.09l.94-.54v1.08l.94-.54v1.09l.94-.54v1.08l.94-.54V814l1-.54v1.09L818,814v1.08l.94-.54v1.09l.94-.54v1.08l.94-.54v1.09l.94-.54v1.09l1-.54v1.08l.94-.54v1.09l.94-.54v1.08l.94-.54v1.09l.94-.54V820l1-.55v1.09l.94-.54v1.09l.94-.54v1.08l.94-.54v1.09l.94-.54v1.09l.95-.54v1.08l.94-.54v1.09l.94-.54v1.08l.94-.54v1.09l.94-.54v1.09l.94-.54V826l1-.54v1.09l.94-.54v1.08l.94-.54v1.09l.94-.54v1.09l.94-.54v1.08l.95-.54v1.09l.94-.54v1.08l.94-.54v1.09l.94-.54v1.09l.94-.54v1.08l.94-.54V832l.95-.54v1.08l.94-.54v1.09l.94-.54v1.09l.94-.54v1.08l.94-.54v1.09l.94-.54v1.08l1-.54v1.09l.94-.54v1.09l.94-.54v1.08l.94-.54v1.09l.94-.54V838l.95-.54v1.09l.94-.54v1.09l.94-.54v1.08l.94-.54v1.09l.94-.54v1.08l1-.54v1.09l.94-.54v1.09l.94-.54v1.08l.94-.54v1.09l.94-.54v1.08l.94-.54V844l.95-.54v1.09l.94-.54v1.08l.94-.54v1.09l.94-.54v1.09l.94-.55v1.09l1-.54v1.09l.94-.54v1.08l.94-.54v1.09l.94-.54v1.09l.94-.55v1.09l.94-.54V850l1-.54v1.08l.94-.54v1.09l.94-.54v1.08l.94-.54v1.09l.94-.54v1.09l866.39-497.54a215.7,215.7,0,0,1,3.91,42.14c0,85-41.09,177.73-91.61,206.74l-103.09,59.2V632.05l-.94.54v-1.08l-.94.54V631l-.94.54v-1.09l-.94.54v-1.08l-.95.54v-1.09l-.94.54v-1.08l-.94.54v-1.09Z"/><path class="cls-1" d="M162,1007.34,66.86,952.19m158.06,19-95.13-54.06m15.05-9.73L240,962.56M109.24,1353.17,162,1384.83m-10,55-95.12-55.14m262.51-90.25-51.8-30.76m255.7-86.33-52.74-31.67m128.45-79.63,33.83,19.6m-46.6-100.31,18.41,10.67m43.11-47.65,19.83,11.49M524.94,729.34l61.22,34.41m-62.94,36.14L428.1,744.74m33.16,90.73L427.35,816.9"/><path class="cls-2" d="M329.5,1548.93q0,27.51-3.27,42.39c-2.17,9.94-5.81,17.61-10.88,23s-12,10.56-20.72,15.57l-32.9,18.89V1527l32.9-18.9c8.72-5,15.64-7.71,20.72-8.2s8.71,2.93,10.88,10.24S329.5,1530.36,329.5,1548.93Z"/><path class="cls-2" d="M1129.72,1052.7q0,15.78-3.68,22.3t-12.66,11.65l-43.79,25.17V1063l43.79-25.16q9-5.12,12.66-2.49C1128.5,1037.15,1129.72,1043,1129.72,1052.7Z"/><path class="cls-2" d="M326.23,1510.1q3.27,11,3.27,38.83,0,27.51-3.27,42.39c-2.17,9.94-5.81,17.61-10.88,23s-12,10.56-20.72,15.57l-32.9,18.89V1527l32.9-18.9c8.72-5,15.64-7.71,20.72-8.2S324.06,1502.79,326.23,1510.1Z"/><path class="cls-2" d="M1126,1035.39q-3.7-2.64-12.66,2.49L1069.59,1063v48.78l43.79-25.17q9-5.14,12.66-11.65t3.68-22.3C1129.72,1043,1128.5,1037.15,1126,1035.39Zm0,0q-3.7-2.64-12.66,2.49L1069.59,1063v48.78l43.79-25.17q9-5.14,12.66-11.65t3.68-22.3C1129.72,1043,1128.5,1037.15,1126,1035.39ZM151.93,1439.88V1881.4l1406.7-807.82V632.06Zm211.78,155.77q-9.57,33-27.22,57.64t-41.86,38.52L231,1728.35l-10.22,5.89V1488.5l10.22-5.86,63.64-36.55q24.19-13.87,41.86-9.55c11.76,2.89,20.84,11.72,27.22,26.37s9.6,35,9.6,60.85S370.1,1573.67,363.71,1595.65Zm150.16-213.48-88.7,50.94v29.35l85.43-49.08V1475l-85.43,49v30.81l88.7-50.94v62l-88.7,50.94-41,23.52V1394.66l11.12-6.38,118.56-68.08Zm136.84,105.16-100,57.43-25.28,14.52V1313.56l41-23.52v183.75l84.33-48.43Zm51.88-29.8-41,23.54V1235.35l41-23.54Zm121.82-70-58.84,33.8-58.63-212,49.46-28.43,37.72,154.4,2.83-1.63,36.82-197.19L883,1108.2Zm192.66-294.36-88.7,50.93v29.33l85.42-49V1186l-85.42,49.06v30.8l88.7-50.94v62l-88.7,50.94-41,23.52V1105.69l11.11-6.38,118.57-68.1Zm112.22,119.29-17.41-50.13c-1.76-5.12-3.58-8.82-5.46-11.2a7.64,7.64,0,0,0-7.42-2.87c-3,.41-7.26,2.14-12.63,5.23l-16.78,9.64v83.62l-41,23.52V1024.59l85.22-48.94q19.37-11.11,32.47-9.83c8.7.85,15.27,5.59,19.73,14.16s6.64,20.94,6.64,37.07a149.73,149.73,0,0,1-4.05,35.88,96.53,96.53,0,0,1-35.39,54.63v3.64q11.31-1.71,16.22,4.82t9.06,18.1l18.08,51.22Zm183.49-289.12-88.68,50.94v29.32l85.41-49v61.63l-85.41,49v30.81l88.68-50.94v62l-88.68,50.94-41,23.52V935.87l11.12-6.41,118.54-68.07Zm156.93,37.14q-9.6,33-27.25,57.65t-41.83,38.51L1337,1093.23l-10.24,5.89V853.38l41-23.52,32.9-18.9q24.16-13.87,41.83-9.55t27.25,26.37q9.58,22,9.58,60.86T1469.71,960.52Zm-48.39-95.81c-5.07.49-12,3.21-20.69,8.23l-32.9,18.89v121.78l32.9-18.9q13.08-7.51,20.69-15.57c5.08-5.33,8.72-13,10.88-22.94s3.28-24.06,3.28-42.39q0-27.87-3.28-38.84C1430,867.64,1426.4,864.26,1421.32,864.71ZM1126,1035.39q-3.7-2.64-12.66,2.49L1069.59,1063v48.78l43.79-25.17q9-5.14,12.66-11.65t3.68-22.3C1129.72,1043,1128.5,1037.15,1126,1035.39Zm0,0q-3.7-2.64-12.66,2.49L1069.59,1063v48.78l43.79-25.17q9-5.14,12.66-11.65t3.68-22.3C1129.72,1043,1128.5,1037.15,1126,1035.39Zm0,0q-3.7-2.64-12.66,2.49L1069.59,1063v48.78l43.79-25.17q9-5.14,12.66-11.65t3.68-22.3C1129.72,1043,1128.5,1037.15,1126,1035.39Z"/><path class="cls-2" d="M329.5,1548.93q0,27.51-3.27,42.39c-2.17,9.94-5.81,17.61-10.88,23s-12,10.56-20.72,15.57l-32.9,18.89V1527l32.9-18.9c8.72-5,15.64-7.71,20.72-8.2s8.71,2.93,10.88,10.24S329.5,1530.36,329.5,1548.93Z"/><path class="cls-2" d="M1129.72,1052.7q0,15.78-3.68,22.3t-12.66,11.65l-43.79,25.17V1063l43.79-25.16q9-5.12,12.66-2.49C1128.5,1037.15,1129.72,1043,1129.72,1052.7Z"/><path class="cls-2" d="M1435.48,913.81q0,27.5-3.28,42.39c-2.16,9.94-5.8,17.61-10.88,22.94s-12,10.56-20.69,15.57l-32.9,18.9V891.83l32.9-18.89c8.72-5,15.62-7.74,20.69-8.23s8.72,2.93,10.88,10.26S1435.48,895.23,1435.48,913.81Z"/><path class="cls-2" d="M1435.48,913.81q0,27.5-3.28,42.39c-2.16,9.94-5.8,17.61-10.88,22.94s-12,10.56-20.69,15.57l-32.9,18.9V891.83l32.9-18.89c8.72-5,15.62-7.74,20.69-8.23s8.72,2.93,10.88,10.26S1435.48,895.23,1435.48,913.81Z"/><polygon class="cls-2" points="161.98 1384.84 224.92 1348.69 224.92 971.2 161.98 1007.34 161.98 1384.84"/><polygon class="cls-2" points="239.96 1057.79 319.32 1012.22 319.32 1294.48 382.26 1258.34 382.26 976.08 461.26 930.71 461.26 835.47 239.96 962.56 239.96 1057.79"/><polygon class="cls-2" points="523.22 1177.38 586.16 1141.24 586.16 763.75 523.22 799.89 523.22 1177.38"/><path class="cls-2" d="M814.13,846.94q-6-19.1-21.09-27.06t-42.51,1l-70.31,22.9a28.17,28.17,0,0,1-9.54,1.53,5.56,5.56,0,0,1-5-3.6,22.26,22.26,0,0,1-1.52-9,36.53,36.53,0,0,1,3.19-15.37c2.12-4.59,6-9.35,11.54-14.23s13.73-10.41,24.45-16.56q21.09-12.12,31.64-14.81c7-1.77,11.72-.72,14,3.2s3.52,10.38,3.52,19.41v8.44l62.94-36.14v-3.4q0-42.23-11.55-66.3t-34.81-27.35Q745.82,666.43,710,687q-30.48,17.5-51.23,40.13a213.34,213.34,0,0,0-33.47,47.69,215.64,215.64,0,0,0-18.42,50.28,217.88,217.88,0,0,0-5.7,47.78q0,30.42,7,48.94T629.33,946q14.07,5.7,34.81-1.12l70.31-24.61q13.74-5,18.24-2.6t4.54,12.62A39.11,39.11,0,0,1,754.71,945c-1.66,4.17-5.53,8.63-11.55,13.39S727.77,969.2,715,976.51q-21.09,12.12-31.12,15.07c-6.7,2-11.11,1.21-13.23-2.27s-3.19-9.32-3.19-17.61V959.87L604.55,996v3.4q0,47.88,13.4,70.32t38.16,22.62q24.79.11,58.92-19.48,37.85-21.73,60.94-52.19t33.65-64.38q10.54-34,10.55-66.08Q820.17,866,814.13,846.94Z"/><path class="cls-2" d="M1943.19,398.1c0-173-83.6-265.61-186.35-206.6L883,693.3V852.76L1756.84,351c50.51-29,91.6,16.57,91.6,101.56s-41.09,177.73-91.6,206.74l-116.11,66.67V885.38l116.11-66.68C1859.59,759.69,1943.19,571,1943.19,398.1Z"/></svg>