<svg width="37" height="39" viewBox="0 0 37 39" fill="none" xmlns="http://www.w3.org/2000/svg">
<path d="M16.6794 1.76251C17.2363 1.4532 17.8629 1.29089 18.5 1.29089C19.1371 1.29089 19.7637 1.4532 20.3206 1.76251L34.4113 9.58876C34.7034 9.75121 34.9468 9.9888 35.1162 10.2769C35.2857 10.5651 35.375 10.8932 35.375 11.2275V26.6681C35.3748 27.3368 35.1959 27.9933 34.8566 28.5696C34.5174 29.1459 34.0302 29.621 33.4456 29.9456L20.3206 37.2394C19.7637 37.5487 19.1371 37.711 18.5 37.711C17.8629 37.711 17.2363 37.5487 16.6794 37.2394L3.55437 29.9456C2.97004 29.6211 2.48306 29.1463 2.14384 28.5704C1.80462 27.9945 1.62549 27.3384 1.625 26.67V11.2275C1.62499 10.8932 1.71433 10.5651 1.88378 10.2769C2.05323 9.9888 2.29662 9.75121 2.58875 9.58876L16.6794 1.76251Z" stroke="#A08FA4" stroke-width="2" stroke-linecap="round" stroke-linejoin="round"/>
<path d="M1.625 10.125L18.5 19.5M18.5 19.5L35.375 10.125M18.5 19.5V37.3125" stroke="#A08FA4" stroke-width="2" stroke-linejoin="round"/>
<path d="M10.0625 14.8125L26.9375 5.4375M7.25 20.115L12.875 23.25" stroke="#A08FA4" stroke-width="2" stroke-linecap="round" stroke-linejoin="round"/>
</svg>
