<svg width="143" height="35" viewBox="0 0 143 35" fill="none" xmlns="http://www.w3.org/2000/svg">
<g clip-path="url(#clip0_16_2)">
<path d="M30.2453 22.0288L26.6476 24.0235V30.6024H23.811V4.39758H26.6476V20.9965L35.3996 16.1848L35.4284 12.4229H38.1958L38.1612 15.9223C38.2257 16.4359 38.127 16.9569 37.8792 17.4099C37.6315 17.8629 37.2476 18.2243 36.7833 18.4419L32.563 20.7749L39.2047 30.6024H35.9876L30.2453 22.0288Z" fill="#8F00B2"/>
<path d="M42.6641 14.7851C42.6641 13.1403 43.4251 12.3355 45.051 12.4054H54.5985V14.8492H45.5007V30.5966H42.6641V14.7851Z" fill="#8F00B2"/>
<path d="M131.071 14.7851C131.071 13.1403 131.832 12.3355 133.458 12.4054H143V14.8492H133.908V30.5966H131.071V14.7851Z" fill="#8F00B2"/>
<path d="M64.8613 12.3705C69.7043 12.3705 72.8868 15.485 72.8868 20.8391V21.9589H59.2977C59.4706 25.2483 61.0273 28.0829 65.2764 28.0829C68.113 28.0829 70.0156 26.6831 70.6383 24.0002H73.4749C72.8176 26.6948 70.7421 30.4158 65.2764 30.4158C59.1247 30.4158 56.5303 26.1524 56.5303 21.1482C56.5303 15.5899 59.9895 12.3705 64.8613 12.3705ZM70.1194 19.7892C70.1194 16.9897 68.286 14.7851 64.8613 14.7851C61.4367 14.7851 59.2977 16.9897 59.2977 19.7892H70.1194Z" fill="#8F00B2"/>
<path d="M82.4859 20.2092L89.364 19.5443C89.1911 16.3598 87.496 14.7851 84.5211 14.7851C82.0304 14.7851 79.7184 15.9049 79.7184 19.1943H76.951C76.951 15.5899 79.6493 12.3705 84.5211 12.3705C89.3928 12.3705 92.2006 15.5899 92.2006 20.2442V28.1529H94.7259V30.6024H91.6702C91.3965 30.6381 91.1185 30.6107 90.8567 30.5225C90.5949 30.4343 90.3562 30.2874 90.1584 30.0929C89.9605 29.8983 89.8087 29.6611 89.714 29.3989C89.6194 29.1368 89.5845 28.8563 89.6119 28.5786C89.6127 27.7955 89.688 27.0142 89.8368 26.2457L90.0616 25.3417H89.2314C88.5742 28.0012 86.7407 30.48 82.5896 30.48C77.6141 30.48 76.853 27.1264 76.853 25.3067C76.853 22.5188 78.4789 20.6291 82.4859 20.2092ZM82.9356 27.9954C86.8445 27.9954 89.3352 25.2658 89.3352 21.6614L82.9932 22.3263C80.8196 22.5363 79.7127 23.2012 79.7127 24.9159C79.6896 26.9281 80.9292 27.9954 82.9356 27.9954Z" fill="#8F00B2"/>
<path d="M118.451 12.3705C123.294 12.3705 126.476 15.485 126.476 20.8391V21.9589H112.881C113.054 25.2483 114.611 28.0829 118.866 28.0829C121.702 28.0829 123.605 26.6831 124.228 24.0002H127.064C126.407 26.6948 124.331 30.4158 118.866 30.4158C112.708 30.4158 110.12 26.1524 110.12 21.1482C110.12 15.5899 113.579 12.3705 118.451 12.3705ZM123.709 19.7892C123.709 16.9897 121.875 14.7851 118.451 14.7851C115.026 14.7851 112.881 16.9897 112.881 19.7892H123.709Z" fill="#8F00B2"/>
<path d="M98.923 10.3117L101.76 9.50098L101.627 28.1645H107.681V30.6141H101.177C99.5515 30.6841 98.7904 29.8792 98.7904 28.2345L98.923 10.3117ZM105.703 14.9134H95.1294V12.423H105.68L105.703 14.9134Z" fill="#8F00B2"/>
<path d="M20.5885 7.22052V27.8204C19.1183 30.9991 16.4547 31.5006 14.0332 29.0452C11.1313 26.1018 8.23509 23.1545 5.34469 20.2034C3.83991 18.6636 3.66118 16.6689 5.09678 15.1642C8.23894 11.8398 11.4676 8.60279 14.7078 5.37749C15.7801 4.316 17.0831 4.26351 18.4495 4.84092C18.9467 5.07038 19.3927 5.39962 19.7604 5.80866C20.1281 6.21771 20.4098 6.69804 20.5885 7.22052Z" fill="#8F00B2"/>
<path d="M11.3752 6.62556C8.46942 9.56118 5.55595 12.4929 2.6348 15.4208C1.94813 16.1636 1.00392 16.6088 0 16.6631L0 0H10.1587C13.3066 1.48142 13.8024 4.17597 11.3752 6.62556Z" fill="#8F00B2"/>
<path d="M10.1587 34.9941H0V18.3369C1.00558 18.3942 1.95003 18.8437 2.6348 19.5909C5.5598 22.5071 8.47326 25.4349 11.3752 28.3744C13.8024 30.824 13.3066 33.5185 10.1587 34.9941Z" fill="#8F00B2"/>
</g>
<defs>
<clipPath id="clip0_16_2">
<rect width="143" height="35" fill="white"/>
</clipPath>
</defs>
</svg>
