<svg width="32" height="37" viewBox="0 0 32 37" fill="none" xmlns="http://www.w3.org/2000/svg">
<path d="M31 18.5C31 26.3567 31 30.285 28.8033 32.725C26.6067 35.1667 23.07 35.1667 16 35.1667C8.92833 35.1667 5.39333 35.1667 3.19667 32.725C1 30.2867 1 26.3567 1 18.5C1 10.6434 1 6.71504 3.19667 4.27337C5.39333 1.83337 8.93 1.83337 16 1.83337C23.0717 1.83337 26.6067 1.83337 28.8033 4.27337C30.2633 5.89671 30.7533 8.17837 30.9167 11.8334" stroke="#A08FA4" stroke-width="2" stroke-linecap="round"/>
<path d="M7.6665 11.8333C7.6665 11.0583 7.6665 10.6717 7.7515 10.3533C7.86516 9.92978 8.08823 9.54357 8.39832 9.23348C8.70841 8.92339 9.09462 8.70032 9.51817 8.58667C9.83984 8.5 10.2265 8.5 10.9998 8.5H20.9998C21.7748 8.5 22.1615 8.5 22.4798 8.585C22.9034 8.69865 23.2896 8.92172 23.5997 9.23181C23.9098 9.54191 24.1328 9.92811 24.2465 10.3517C24.3332 10.6733 24.3332 11.06 24.3332 11.8333C24.3332 12.6067 24.3332 12.995 24.2482 13.3133C24.1345 13.7369 23.9114 14.1231 23.6014 14.4332C23.2913 14.7433 22.9051 14.9663 22.4815 15.08C22.1615 15.1667 21.7732 15.1667 20.9998 15.1667H10.9998C10.2248 15.1667 9.83817 15.1667 9.51984 15.0817C9.09628 14.968 8.71008 14.7449 8.39999 14.4349C8.08989 14.1248 7.86682 13.7386 7.75317 13.315C7.6665 12.9933 7.6665 12.6067 7.6665 11.8333Z" stroke="#A08FA4" stroke-width="2"/>
<path d="M9.33317 21.8333C10.2536 21.8333 10.9998 21.0871 10.9998 20.1667C10.9998 19.2462 10.2536 18.5 9.33317 18.5C8.4127 18.5 7.6665 19.2462 7.6665 20.1667C7.6665 21.0871 8.4127 21.8333 9.33317 21.8333Z" fill="#A08FA4"/>
<path d="M9.33317 28.5001C10.2536 28.5001 10.9998 27.7539 10.9998 26.8334C10.9998 25.9129 10.2536 25.1667 9.33317 25.1667C8.4127 25.1667 7.6665 25.9129 7.6665 26.8334C7.6665 27.7539 8.4127 28.5001 9.33317 28.5001Z" fill="#A08FA4"/>
<path d="M16.0002 21.8333C16.9206 21.8333 17.6668 21.0871 17.6668 20.1667C17.6668 19.2462 16.9206 18.5 16.0002 18.5C15.0797 18.5 14.3335 19.2462 14.3335 20.1667C14.3335 21.0871 15.0797 21.8333 16.0002 21.8333Z" fill="#A08FA4"/>
<path d="M16.0002 28.5001C16.9206 28.5001 17.6668 27.7539 17.6668 26.8334C17.6668 25.9129 16.9206 25.1667 16.0002 25.1667C15.0797 25.1667 14.3335 25.9129 14.3335 26.8334C14.3335 27.7539 15.0797 28.5001 16.0002 28.5001Z" fill="#A08FA4"/>
<path d="M22.6667 21.8333C23.5871 21.8333 24.3333 21.0871 24.3333 20.1667C24.3333 19.2462 23.5871 18.5 22.6667 18.5C21.7462 18.5 21 19.2462 21 20.1667C21 21.0871 21.7462 21.8333 22.6667 21.8333Z" fill="#A08FA4"/>
<path d="M22.6667 28.5001C23.5871 28.5001 24.3333 27.7539 24.3333 26.8334C24.3333 25.9129 23.5871 25.1667 22.6667 25.1667C21.7462 25.1667 21 25.9129 21 26.8334C21 27.7539 21.7462 28.5001 22.6667 28.5001Z" fill="#A08FA4"/>
</svg>
